<svg width="120" height="30" viewBox="0 0 120 30" fill="none" xmlns="http://www.w3.org/2000/svg">
<path d="M6.45389 18.9661L0.0270956 15.5001L0 7.89436L13.4094 0.680759L13.7192 0.63623L27.2377 7.8606L27.2414 14.1887L14.2435 21.0597V29.3635L7.81526 25.9707L7.78963 17.641L20.7091 10.6968L20.775 5.79937C20.726 5.66578 18.923 4.7271 18.7604 4.76947L6.45316 11.42V18.9654L6.45389 18.9661Z" fill="url(#paint0_linear_375_1097)"/>
<path d="M34.4482 22V8H39.1682C40.7416 8 41.9749 8.37333 42.8682 9.12C43.7749 9.85333 44.2282 10.9533 44.2282 12.42C44.2282 13.9 43.7749 15.02 42.8682 15.78C41.9749 16.54 40.7416 16.92 39.1682 16.92H37.2482V22H34.4482ZM37.2482 14.4H39.0082C39.7682 14.4 40.3549 14.24 40.7682 13.92C41.1816 13.6 41.3882 13.1067 41.3882 12.44C41.3882 11.7733 41.1816 11.2867 40.7682 10.98C40.3549 10.66 39.7682 10.5 39.0082 10.5H37.2482V14.4ZM45.2248 22V7.4H47.9248V22H45.2248ZM54.2617 22.26C53.315 22.26 52.4483 22.02 51.6617 21.54C50.8883 21.0467 50.2683 20.3933 49.8017 19.58C49.3483 18.7533 49.1217 17.84 49.1217 16.84C49.1217 16.0933 49.255 15.3933 49.5217 14.74C49.7883 14.0733 50.155 13.4933 50.6217 13C51.0883 12.4933 51.6283 12.1 52.2417 11.82C52.8683 11.5267 53.5417 11.38 54.2617 11.38C55.1683 11.38 55.875 11.5533 56.3817 11.9C56.8883 12.2333 57.2817 12.68 57.5617 13.24V11.6H60.2417V22H57.6217V20.3C57.3417 20.8867 56.9417 21.36 56.4217 21.72C55.915 22.08 55.195 22.26 54.2617 22.26ZM54.7017 19.82C55.3017 19.82 55.815 19.6867 56.2417 19.42C56.6817 19.14 57.0217 18.7733 57.2617 18.32C57.5017 17.8667 57.6217 17.3733 57.6217 16.84C57.6217 16.2933 57.5017 15.7933 57.2617 15.34C57.0217 14.8867 56.6817 14.52 56.2417 14.24C55.815 13.96 55.3017 13.82 54.7017 13.82C54.1283 13.82 53.6217 13.96 53.1817 14.24C52.755 14.5067 52.4217 14.8667 52.1817 15.32C51.9417 15.7733 51.8217 16.2733 51.8217 16.82C51.8217 17.34 51.9417 17.8333 52.1817 18.3C52.4217 18.7533 52.755 19.12 53.1817 19.4C53.6217 19.68 54.1283 19.82 54.7017 19.82ZM61.8459 22V11.6H64.5059V13.12C65.0526 11.9467 66.1126 11.36 67.6859 11.36C68.4326 11.36 69.1059 11.5333 69.7059 11.88C70.3059 12.2267 70.7792 12.72 71.1259 13.36C71.4726 14 71.6459 14.76 71.6459 15.64V22H68.9459V16.3C68.9459 15.3933 68.7392 14.74 68.3259 14.34C67.9126 13.9267 67.3726 13.72 66.7059 13.72C66.1326 13.72 65.6259 13.9267 65.1859 14.34C64.7592 14.74 64.5459 15.3933 64.5459 16.3V22H61.8459ZM79.1345 22.26C78.2012 22.26 77.4745 22.08 76.9545 21.72C76.4478 21.36 76.0545 20.8867 75.7745 20.3V22H73.1545V7.4H75.8545V13.2C76.1345 12.6533 76.5278 12.2133 77.0345 11.88C77.5412 11.5467 78.2412 11.38 79.1345 11.38C79.8545 11.38 80.5212 11.5267 81.1345 11.82C81.7612 12.1 82.3078 12.4933 82.7745 13C83.2412 13.4933 83.6078 14.0733 83.8745 14.74C84.1412 15.3933 84.2745 16.0933 84.2745 16.84C84.2745 17.84 84.0412 18.7533 83.5745 19.58C83.1212 20.3933 82.5078 21.0467 81.7345 21.54C80.9612 22.02 80.0945 22.26 79.1345 22.26ZM78.6945 19.82C79.2678 19.82 79.7678 19.68 80.1945 19.4C80.6345 19.12 80.9745 18.7533 81.2145 18.3C81.4545 17.8333 81.5745 17.34 81.5745 16.82C81.5745 16.2733 81.4545 15.7733 81.2145 15.32C80.9745 14.8667 80.6345 14.5067 80.1945 14.24C79.7678 13.96 79.2678 13.82 78.6945 13.82C78.1078 13.82 77.5945 13.96 77.1545 14.24C76.7145 14.52 76.3745 14.8867 76.1345 15.34C75.8945 15.7933 75.7745 16.2933 75.7745 16.84C75.7745 17.3733 75.8945 17.8667 76.1345 18.32C76.3745 18.7733 76.7145 19.14 77.1545 19.42C77.5945 19.6867 78.1078 19.82 78.6945 19.82ZM90.5211 22.26C89.4544 22.26 88.5011 22.0133 87.6611 21.52C86.8211 21.0267 86.1611 20.3733 85.6811 19.56C85.2144 18.7333 84.9811 17.82 84.9811 16.82C84.9811 15.82 85.2144 14.9067 85.6811 14.08C86.1611 13.2533 86.8211 12.5933 87.6611 12.1C88.5011 11.6067 89.4544 11.36 90.5211 11.36C91.6011 11.36 92.5544 11.6067 93.3811 12.1C94.2211 12.5933 94.8744 13.2533 95.3411 14.08C95.8211 14.9067 96.0611 15.82 96.0611 16.82C96.0611 17.82 95.8211 18.7333 95.3411 19.56C94.8744 20.3733 94.2211 21.0267 93.3811 21.52C92.5544 22.0133 91.6011 22.26 90.5211 22.26ZM90.5211 19.8C91.0944 19.8 91.5944 19.6667 92.0211 19.4C92.4477 19.12 92.7744 18.7533 93.0011 18.3C93.2411 17.8467 93.3611 17.3533 93.3611 16.82C93.3611 16.2733 93.2411 15.7733 93.0011 15.32C92.7744 14.8667 92.4477 14.5067 92.0211 14.24C91.5944 13.96 91.0944 13.82 90.5211 13.82C89.9477 13.82 89.4477 13.96 89.0211 14.24C88.5944 14.5067 88.2611 14.8667 88.0211 15.32C87.7944 15.7733 87.6811 16.2733 87.6811 16.82C87.6811 17.3533 87.7944 17.8467 88.0211 18.3C88.2611 18.7533 88.5944 19.12 89.0211 19.4C89.4477 19.6667 89.9477 19.8 90.5211 19.8ZM102.298 22.26C101.232 22.26 100.278 22.0133 99.4384 21.52C98.5984 21.0267 97.9384 20.3733 97.4584 19.56C96.9917 18.7333 96.7584 17.82 96.7584 16.82C96.7584 15.82 96.9917 14.9067 97.4584 14.08C97.9384 13.2533 98.5984 12.5933 99.4384 12.1C100.278 11.6067 101.232 11.36 102.298 11.36C103.378 11.36 104.332 11.6067 105.158 12.1C105.998 12.5933 106.652 13.2533 107.118 14.08C107.598 14.9067 107.838 15.82 107.838 16.82C107.838 17.82 107.598 18.7333 107.118 19.56C106.652 20.3733 105.998 21.0267 105.158 21.52C104.332 22.0133 103.378 22.26 102.298 22.26ZM102.298 19.8C102.872 19.8 103.372 19.6667 103.798 19.4C104.225 19.12 104.552 18.7533 104.778 18.3C105.018 17.8467 105.138 17.3533 105.138 16.82C105.138 16.2733 105.018 15.7733 104.778 15.32C104.552 14.8667 104.225 14.5067 103.798 14.24C103.372 13.96 102.872 13.82 102.298 13.82C101.725 13.82 101.225 13.96 100.798 14.24C100.372 14.5067 100.038 14.8667 99.7984 15.32C99.5717 15.7733 99.4584 16.2733 99.4584 16.82C99.4584 17.3533 99.5717 17.8467 99.7984 18.3C100.038 18.7533 100.372 19.12 100.798 19.4C101.225 19.6667 101.725 19.8 102.298 19.8ZM109.033 22V7.4H111.733V15.8L115.633 11.6H119.473L114.573 16.44L119.493 22H115.913L111.733 17.06V22H109.033Z" fill="black"/>
<defs>
<linearGradient id="paint0_linear_375_1097" x1="34" y1="11.6362" x2="13.6207" y2="29.3635" gradientUnits="userSpaceOnUse">
<stop offset="0.274038" stop-color="#28E1E4"/>
<stop offset="0.615385" stop-color="#3AA7FC"/>
<stop offset="0.793269" stop-color="#407BE9"/>
<stop offset="1" stop-color="#3714A2"/>
</linearGradient>
</defs>
</svg>
