<svg width="37" height="36" viewBox="0 0 37 36" fill="none" xmlns="http://www.w3.org/2000/svg">
<path d="M16.0624 6.16261L8.5374 11.0751C6.1249 12.6501 6.1249 16.1751 8.5374 17.7501L16.0624 22.6626C17.4124 23.5501 19.6374 23.5501 20.9874 22.6626L28.4749 17.7501C30.8749 16.1751 30.8749 12.6626 28.4749 11.0876L20.9874 6.17511C19.6374 5.27511 17.4124 5.27511 16.0624 6.16261Z" stroke="black" stroke-width="1.875" stroke-linecap="round" stroke-linejoin="round"/>
<path d="M10.5374 19.3501L10.5249 25.2126C10.5249 26.8001 11.7499 28.5001 13.2499 29.0001L17.2374 30.3251C17.9249 30.5501 19.0624 30.5501 19.7624 30.3251L23.7499 29.0001C25.2499 28.5001 26.4749 26.8001 26.4749 25.2126V19.4126" stroke="black" stroke-width="1.875" stroke-linecap="round" stroke-linejoin="round"/>
<path d="M30.25 21.75V14.25" stroke="black" stroke-width="1.875" stroke-linecap="round" stroke-linejoin="round"/>
</svg>
