<svg width="31" height="30" viewBox="0 0 31 30" fill="none" xmlns="http://www.w3.org/2000/svg">
<path d="M15.525 3.6377C11.3875 3.6377 8.02499 7.0002 8.02499 11.1377V14.7502C8.02499 15.5127 7.69999 16.6752 7.31249 17.3252L5.87499 19.7127C4.98749 21.1877 5.59999 22.8252 7.22499 23.3752C12.6125 25.1752 18.425 25.1752 23.8125 23.3752C25.325 22.8752 25.9875 21.0877 25.1625 19.7127L23.725 17.3252C23.35 16.6752 23.025 15.5127 23.025 14.7502V11.1377C23.025 7.0127 19.65 3.6377 15.525 3.6377Z" stroke="black" stroke-width="1.875" stroke-miterlimit="10" stroke-linecap="round"/>
<path d="M17.8374 3.9998C17.4499 3.8873 17.0499 3.7998 16.6374 3.7498C15.4374 3.5998 14.2874 3.6873 13.2124 3.9998C13.5749 3.0748 14.4749 2.4248 15.5249 2.4248C16.5749 2.4248 17.4749 3.0748 17.8374 3.9998Z" stroke="black" stroke-width="1.875" stroke-miterlimit="10" stroke-linecap="round" stroke-linejoin="round"/>
<path d="M19.2749 23.8252C19.2749 25.8877 17.5874 27.5752 15.5249 27.5752C14.4999 27.5752 13.5499 27.1502 12.8749 26.4752C12.1999 25.8002 11.7749 24.8502 11.7749 23.8252" stroke="black" stroke-width="1.875" stroke-miterlimit="10"/>
</svg>
