<svg width="37" height="36" viewBox="0 0 37 36" fill="none" xmlns="http://www.w3.org/2000/svg">
<path d="M31 23.9251V8.83761C31 7.33761 29.775 6.22511 28.2875 6.35011H28.2125C25.5875 6.57511 21.6 7.91261 19.375 9.31261L19.1625 9.45011C18.8 9.67511 18.2 9.67511 17.8375 9.45011L17.525 9.26261C15.3 7.87511 11.325 6.55011 8.7 6.33761C7.2125 6.21261 6 7.33761 6 8.82511V23.9251C6 25.1251 6.975 26.2501 8.175 26.4001L8.5375 26.4501C11.25 26.8126 15.4375 28.1876 17.8375 29.5001L17.8875 29.5251C18.225 29.7126 18.7625 29.7126 19.0875 29.5251C21.4875 28.2001 25.6875 26.8126 28.4125 26.4501L28.825 26.4001C30.025 26.2501 31 25.1251 31 23.9251Z" stroke="black" stroke-width="1.875" stroke-linecap="round" stroke-linejoin="round"/>
<path d="M18.5 9.8623V28.6123" stroke="black" stroke-width="1.875" stroke-linecap="round" stroke-linejoin="round"/>
<path d="M13.1875 13.6123H10.375" stroke="black" stroke-width="1.875" stroke-linecap="round" stroke-linejoin="round"/>
<path d="M14.125 17.3623H10.375" stroke="black" stroke-width="1.875" stroke-linecap="round" stroke-linejoin="round"/>
</svg>
