<svg width="36" height="36" viewBox="0 0 36 36" fill="none" xmlns="http://www.w3.org/2000/svg">
<path d="M21.0376 22.125H14.7876C14.2751 22.125 13.8501 21.7 13.8501 21.1875C13.8501 20.675 14.2751 20.25 14.7876 20.25H21.0376C21.5501 20.25 21.9751 20.675 21.9751 21.1875C21.9751 21.7 21.5501 22.125 21.0376 22.125Z" fill="black"/>
<path d="M24.25 31.4375H11.75C6.2375 31.4375 4.5625 29.7625 4.5625 24.25V11.75C4.5625 6.2375 6.2375 4.5625 11.75 4.5625H13.625C15.8125 4.5625 16.5 5.275 17.375 6.4375L19.25 8.9375C19.6625 9.4875 19.725 9.5625 20.5 9.5625H24.25C29.7625 9.5625 31.4375 11.2375 31.4375 16.75V24.25C31.4375 29.7625 29.7625 31.4375 24.25 31.4375ZM11.75 6.4375C7.275 6.4375 6.4375 7.2875 6.4375 11.75V24.25C6.4375 28.7125 7.275 29.5625 11.75 29.5625H24.25C28.725 29.5625 29.5625 28.7125 29.5625 24.25V16.75C29.5625 12.2875 28.725 11.4375 24.25 11.4375H20.5C18.9 11.4375 18.375 10.8875 17.75 10.0625L15.875 7.5625C15.225 6.7 15.025 6.4375 13.625 6.4375H11.75Z" fill="black"/>
</svg>
