<svg width="36" height="36" viewBox="0 0 36 36" fill="none" xmlns="http://www.w3.org/2000/svg">
<path d="M29.325 17.775L29.125 17.5C28.775 17.075 28.3625 16.7375 27.8875 16.4875C27.25 16.125 26.525 15.9375 25.775 15.9375H10.2125C9.4625 15.9375 8.75 16.125 8.1 16.4875C7.6125 16.75 7.175 17.1125 6.8125 17.5625C6.1 18.475 5.7625 19.6 5.875 20.725L6.3375 26.5625C6.5 28.325 6.7125 30.5 10.675 30.5H25.325C29.2875 30.5 29.4875 28.325 29.6625 26.55L30.125 20.7375C30.2375 19.6875 29.9625 18.6375 29.325 17.775ZM20.9875 24.675H15C14.5125 24.675 14.125 24.275 14.125 23.8C14.125 23.325 14.5125 22.925 15 22.925H20.9875C21.475 22.925 21.8625 23.325 21.8625 23.8C21.8625 24.2875 21.475 24.675 20.9875 24.675Z" fill="url(#paint0_radial_1255_3993)"/>
<path d="M28.7015 13.7455C28.7484 14.2241 28.2293 14.5445 27.7733 14.3919C27.1424 14.1806 26.4782 14.075 25.7876 14.075H10.2126C9.51655 14.075 8.83122 14.1877 8.19177 14.4024C7.74128 14.5537 7.2251 14.2438 7.2251 13.7686V11.325C7.2251 6.8625 8.5876 5.5 13.0501 5.5H14.5251C16.3126 5.5 16.8751 6.075 17.6001 7.0125L19.1001 9.0125C19.4126 9.4375 19.4251 9.4625 19.9751 9.4625H22.9501C26.8572 9.4625 28.3839 10.5091 28.7015 13.7455Z" fill="url(#paint1_radial_1255_3993)"/>
<defs>
<radialGradient id="paint0_radial_1255_3993" cx="0" cy="0" r="1" gradientUnits="userSpaceOnUse" gradientTransform="translate(18.0017 23.2188) rotate(90) scale(7.28125 12.1479)">
<stop offset="0.240385" stop-color="#28E1E4"/>
<stop offset="0.461538" stop-color="#30C7EF"/>
<stop offset="0.596154" stop-color="#3AA7FC"/>
<stop offset="0.716346" stop-color="#407BE9"/>
<stop offset="1" stop-color="#3714A2"/>
</radialGradient>
<radialGradient id="paint1_radial_1255_3993" cx="0" cy="0" r="1" gradientUnits="userSpaceOnUse" gradientTransform="translate(17.9938 10.1625) rotate(90) scale(4.6625 10.7687)">
<stop offset="0.240385" stop-color="#28E1E4"/>
<stop offset="0.461538" stop-color="#30C7EF"/>
<stop offset="0.596154" stop-color="#3AA7FC"/>
<stop offset="0.716346" stop-color="#407BE9"/>
<stop offset="1" stop-color="#3714A2"/>
</radialGradient>
</defs>
</svg>
