<svg width="37" height="36" viewBox="0 0 37 36" fill="none" xmlns="http://www.w3.org/2000/svg">
<path d="M27.1751 9.7748L20.7126 6.0373C19.4751 5.3248 17.5376 5.3248 16.3001 6.0373L9.7751 9.7998C7.1876 11.5498 7.0376 11.8123 7.0376 14.5998V21.3873C7.0376 24.1748 7.1876 24.4498 9.8251 26.2248L16.2876 29.9623C16.9126 30.3248 17.7126 30.4998 18.5001 30.4998C19.2876 30.4998 20.0876 30.3248 20.7001 29.9623L27.2251 26.1998C29.8126 24.4498 29.9626 24.1873 29.9626 21.3998V14.5998C29.9626 11.8123 29.8126 11.5498 27.1751 9.7748ZM18.5001 22.0623C16.2626 22.0623 14.4376 20.2373 14.4376 17.9998C14.4376 15.7623 16.2626 13.9373 18.5001 13.9373C20.7376 13.9373 22.5626 15.7623 22.5626 17.9998C22.5626 20.2373 20.7376 22.0623 18.5001 22.0623Z" fill="url(#paint0_radial_1254_3986)"/>
<defs>
<radialGradient id="paint0_radial_1254_3986" cx="0" cy="0" r="1" gradientUnits="userSpaceOnUse" gradientTransform="translate(18.5001 18.0014) rotate(90) scale(12.4984 11.4625)">
<stop offset="0.240385" stop-color="#28E1E4"/>
<stop offset="0.461538" stop-color="#30C7EF"/>
<stop offset="0.596154" stop-color="#3AA7FC"/>
<stop offset="0.716346" stop-color="#407BE9"/>
<stop offset="1" stop-color="#3714A2"/>
</radialGradient>
</defs>
</svg>
