<svg width="37" height="36" viewBox="0 0 37 36" fill="none" xmlns="http://www.w3.org/2000/svg">
<path d="M7.25 14.3877V21.6002C7.25 24.2502 7.25 24.2502 9.75 25.9377L16.625 29.9127C17.6625 30.5127 19.35 30.5127 20.375 29.9127L27.25 25.9377C29.75 24.2502 29.75 24.2502 29.75 21.6127V14.3877C29.75 11.7502 29.75 11.7502 27.25 10.0627L20.375 6.0877C19.35 5.4877 17.6625 5.4877 16.625 6.0877L9.75 10.0627C7.25 11.7502 7.25 11.7502 7.25 14.3877Z" stroke="black" stroke-width="1.875" stroke-linecap="round" stroke-linejoin="round"/>
<path d="M18.5 21.75C20.5711 21.75 22.25 20.0711 22.25 18C22.25 15.9289 20.5711 14.25 18.5 14.25C16.4289 14.25 14.75 15.9289 14.75 18C14.75 20.0711 16.4289 21.75 18.5 21.75Z" stroke="black" stroke-width="1.875" stroke-linecap="round" stroke-linejoin="round"/>
</svg>
