<svg width="100" height="100" viewBox="0 0 100 100" fill="none" xmlns="http://www.w3.org/2000/svg">
<g filter="url(#filter0_d_2112_1603)">
<rect x="20" y="22" width="73" height="67" rx="5" fill="url(#paint0_linear_2112_1603)"/>
</g>
<g filter="url(#filter1_d_2112_1603)">
<rect x="20" y="17" width="69" height="67" rx="5" fill="url(#paint1_linear_2112_1603)"/>
</g>
<path fill-rule="evenodd" clip-rule="evenodd" d="M23.25 83.25C23.25 85.87 25.38 88 28 88H78.5C81.12 88 83.25 90.13 83.25 92.75C83.25 95.37 81.12 97.5 78.5 97.5H28C20.13 97.5 13.75 91.12 13.75 83.25V16.75C13.75 8.88 20.13 2.5 28 2.5H72C79.87 2.5 86.25 8.88 86.25 16.75V73.75C86.25 76.37 84.12 78.5 81.5 78.5H28C25.38 78.5 23.25 80.63 23.25 83.25Z" fill="url(#paint2_linear_2112_1603)"/>
<defs>
<filter id="filter0_d_2112_1603" x="16" y="20" width="81" height="75" filterUnits="userSpaceOnUse" color-interpolation-filters="sRGB">
<feFlood flood-opacity="0" result="BackgroundImageFix"/>
<feColorMatrix in="SourceAlpha" type="matrix" values="0 0 0 0 0 0 0 0 0 0 0 0 0 0 0 0 0 0 127 0" result="hardAlpha"/>
<feOffset dy="2"/>
<feGaussianBlur stdDeviation="2"/>
<feComposite in2="hardAlpha" operator="out"/>
<feColorMatrix type="matrix" values="0 0 0 0 0 0 0 0 0 0 0 0 0 0 0 0 0 0 0.1 0"/>
<feBlend mode="normal" in2="BackgroundImageFix" result="effect1_dropShadow_2112_1603"/>
<feBlend mode="normal" in="SourceGraphic" in2="effect1_dropShadow_2112_1603" result="shape"/>
</filter>
<filter id="filter1_d_2112_1603" x="16" y="15" width="77" height="75" filterUnits="userSpaceOnUse" color-interpolation-filters="sRGB">
<feFlood flood-opacity="0" result="BackgroundImageFix"/>
<feColorMatrix in="SourceAlpha" type="matrix" values="0 0 0 0 0 0 0 0 0 0 0 0 0 0 0 0 0 0 127 0" result="hardAlpha"/>
<feOffset dy="2"/>
<feGaussianBlur stdDeviation="2"/>
<feComposite in2="hardAlpha" operator="out"/>
<feColorMatrix type="matrix" values="0 0 0 0 0 0 0 0 0 0 0 0 0 0 0 0 0 0 0.1 0"/>
<feBlend mode="normal" in2="BackgroundImageFix" result="effect1_dropShadow_2112_1603"/>
<feBlend mode="normal" in="SourceGraphic" in2="effect1_dropShadow_2112_1603" result="shape"/>
</filter>
<linearGradient id="paint0_linear_2112_1603" x1="56.5" y1="22" x2="56.5" y2="89" gradientUnits="userSpaceOnUse">
<stop stop-color="#F7FBFF"/>
<stop offset="1" stop-color="#ECF9FF"/>
</linearGradient>
<linearGradient id="paint1_linear_2112_1603" x1="54.5" y1="17" x2="54.5" y2="84" gradientUnits="userSpaceOnUse">
<stop stop-color="#F7FBFF"/>
<stop offset="1" stop-color="#ECF9FF"/>
</linearGradient>
<linearGradient id="paint2_linear_2112_1603" x1="-0.0509976" y1="-4.851" x2="91.965" y2="95.99" gradientUnits="userSpaceOnUse">
<stop stop-color="#97E0FF"/>
<stop offset="1" stop-color="#1075FF"/>
</linearGradient>
</defs>
</svg>
