<svg width="56" height="70" viewBox="0 0 56 70" fill="none" xmlns="http://www.w3.org/2000/svg">
<path d="M33.4545 0.5H5.22727C2.34033 0.5 0 2.84033 0 5.72727V64.2727C0 67.1597 2.34033 69.5 5.22728 69.5H50.1818C53.0688 69.5 55.4091 67.1597 55.4091 64.2727V21.9318L33.4545 0.5Z" fill="url(#paint0_linear_684_14214)"/>
<path d="M55.4101 21.9318L33.4556 0.5V16.7045C33.4556 19.5915 35.7959 21.9318 38.6828 21.9318H55.4101Z" fill="#6C99DD"/>
<path d="M14.7767 58.5911V48.9018H18.8602C19.4359 48.9018 19.9872 49.014 20.5141 49.2384C21.0508 49.4531 21.5289 49.7702 21.9485 50.1898C22.368 50.6094 22.6998 51.1168 22.9437 51.712C23.1877 52.3072 23.3097 52.9853 23.3097 53.7464C23.3097 54.5075 23.1877 55.1857 22.9437 55.7809C22.6998 56.3761 22.368 56.8835 21.9485 57.3031C21.5289 57.7226 21.0508 58.0446 20.5141 58.2691C19.9872 58.4837 19.4359 58.5911 18.8602 58.5911H14.7767ZM15.8744 57.5519H18.8163C19.5091 57.5519 20.1092 57.3762 20.6166 57.025C21.124 56.6737 21.5143 56.2102 21.7875 55.6345C22.0704 55.0588 22.2119 54.4295 22.2119 53.7464C22.2119 53.0536 22.0704 52.4194 21.7875 51.8437C21.5143 51.268 21.124 50.8094 20.6166 50.4679C20.1092 50.1166 19.5091 49.941 18.8163 49.941H15.8744V57.5519ZM29.3709 58.7082C28.6391 58.7082 27.9707 58.5813 27.3658 58.3276C26.7608 58.0739 26.2388 57.7178 25.7997 57.2592C25.3703 56.8005 25.0386 56.2736 24.8044 55.6784C24.5702 55.0735 24.4531 54.4295 24.4531 53.7464C24.4531 53.0536 24.5702 52.4096 24.8044 51.8144C25.0386 51.2192 25.3703 50.6923 25.7997 50.2337C26.2388 49.7751 26.7608 49.4189 27.3658 49.1652C27.9707 48.9115 28.6391 48.7847 29.3709 48.7847C30.1028 48.7847 30.7712 48.9115 31.3761 49.1652C31.9811 49.4189 32.4982 49.7751 32.9276 50.2337C33.3667 50.6923 33.7033 51.2192 33.9375 51.8144C34.1717 52.4096 34.2888 53.0536 34.2888 53.7464C34.2888 54.4295 34.1717 55.0735 33.9375 55.6784C33.7033 56.2736 33.3667 56.8005 32.9276 57.2592C32.4982 57.7178 31.9811 58.0739 31.3761 58.3276C30.7712 58.5813 30.1028 58.7082 29.3709 58.7082ZM29.3709 57.6397C30.1613 57.6397 30.8395 57.4689 31.4054 57.1274C31.9811 56.7762 32.4202 56.3078 32.7227 55.7223C33.0349 55.1271 33.191 54.4685 33.191 53.7464C33.191 53.0146 33.0349 52.356 32.7227 51.7705C32.4202 51.1851 31.9811 50.7216 31.4054 50.3801C30.8395 50.0288 30.1613 49.8532 29.3709 49.8532C28.5903 49.8532 27.9122 50.0288 27.3365 50.3801C26.7608 50.7216 26.3168 51.1851 26.0046 51.7705C25.7021 52.356 25.5508 53.0146 25.5508 53.7464C25.5508 54.4685 25.7021 55.1271 26.0046 55.7223C26.3168 56.3078 26.7608 56.7762 27.3365 57.1274C27.9122 57.4689 28.5903 57.6397 29.3709 57.6397ZM40.114 58.7082C39.148 58.7082 38.3138 58.4886 37.6112 58.0495C36.9087 57.6007 36.3671 57.0006 35.9866 56.2492C35.6158 55.4979 35.4304 54.6636 35.4304 53.7464C35.4304 52.8292 35.6158 51.9949 35.9866 51.2436C36.3671 50.4923 36.9087 49.8971 37.6112 49.458C38.3138 49.0091 39.148 48.7847 40.114 48.7847C40.8458 48.7847 41.5045 48.9164 42.0899 49.1799C42.6754 49.4336 43.173 49.7849 43.5828 50.2337C43.9927 50.6825 44.3 51.2046 44.5049 51.7998H43.3487C43.1047 51.2046 42.7193 50.7313 42.1924 50.3801C41.6655 50.0288 41.002 49.8532 40.2018 49.8532C39.4212 49.8532 38.7528 50.0288 38.1967 50.3801C37.6502 50.7216 37.2355 51.1851 36.9526 51.7705C36.6696 52.356 36.5281 53.0146 36.5281 53.7464C36.5281 54.4685 36.6696 55.1271 36.9526 55.7223C37.2355 56.3078 37.6502 56.7762 38.1967 57.1274C38.7528 57.4689 39.4212 57.6397 40.2018 57.6397C41.002 57.6397 41.6655 57.4641 42.1924 57.1128C42.7193 56.7615 43.1047 56.2883 43.3487 55.6931H44.5049C44.3 56.2785 43.9927 56.8005 43.5828 57.2592C43.173 57.708 42.6754 58.0642 42.0899 58.3276C41.5045 58.5813 40.8458 58.7082 40.114 58.7082Z" fill="white"/>
<defs>
<linearGradient id="paint0_linear_684_14214" x1="27.7045" y1="0.5" x2="27.7045" y2="69.5" gradientUnits="userSpaceOnUse">
<stop stop-color="#004DC0"/>
<stop offset="1" stop-color="#00193F"/>
</linearGradient>
</defs>
</svg>
