<svg width="57" height="69" viewBox="0 0 57 69" fill="none" xmlns="http://www.w3.org/2000/svg">
<path d="M34.434 0H6.20676C3.31982 0 0.979492 2.34033 0.979492 5.22727V63.7727C0.979492 66.6597 3.31982 69 6.20677 69H51.1613C54.0483 69 56.3886 66.6597 56.3886 63.7727V21.4318L34.434 0Z" fill="url(#paint0_linear_708_4533)"/>
<path d="M56.3889 21.4318L34.4343 0V16.2045C34.4343 19.0915 36.7747 21.4318 39.6616 21.4318H56.3889Z" fill="#22008C" fill-opacity="0.66"/>
<path d="M15.7568 58.0911V48.4019H20.1185C21.1528 48.4019 21.9675 48.6848 22.5627 49.2508C23.158 49.8069 23.4556 50.5632 23.4556 51.5194C23.4556 52.4756 23.158 53.2367 22.5627 53.8027C21.9675 54.3589 21.1528 54.6369 20.1185 54.6369H16.8546V58.0911H15.7568ZM16.8546 53.6124H20.0453C20.8064 53.6124 21.3821 53.427 21.7724 53.0562C22.1627 52.6854 22.3578 52.1732 22.3578 51.5194C22.3578 50.8754 22.1627 50.368 21.7724 49.9972C21.3821 49.6264 20.8064 49.441 20.0453 49.441H16.8546V53.6124ZM24.9474 58.0911V48.4019H29.2944C30.0555 48.4019 30.6556 48.5336 31.0947 48.797C31.5436 49.0605 31.8656 49.3922 32.0607 49.7923C32.2559 50.1826 32.3534 50.5729 32.3534 50.9632C32.3534 51.5877 32.2217 52.0707 31.9583 52.4122C31.6948 52.744 31.3923 52.9879 31.0508 53.144C31.324 53.2319 31.5972 53.3733 31.8704 53.5685C32.1534 53.7539 32.3876 54.0076 32.573 54.3296C32.7584 54.6516 32.8511 55.0565 32.8511 55.5444C32.8511 56.2665 32.573 56.8714 32.0168 57.3593C31.4704 57.8472 30.6459 58.0911 29.5433 58.0911H24.9474ZM26.0452 52.7342H29.2944C29.636 52.7342 29.9531 52.6757 30.2458 52.5586C30.5483 52.4415 30.7922 52.261 30.9776 52.017C31.163 51.7633 31.2557 51.4413 31.2557 51.051C31.2557 50.7778 31.1923 50.5192 31.0654 50.2753C30.9484 50.0314 30.7532 49.8313 30.48 49.6752C30.2165 49.5191 29.8604 49.441 29.4115 49.441H26.0452V52.7342ZM26.0452 57.0519H29.6604C30.3239 57.0519 30.8361 56.9153 31.1972 56.6421C31.568 56.3592 31.7534 55.964 31.7534 55.4566C31.7534 54.998 31.5777 54.5979 31.2264 54.2564C30.8752 53.9051 30.3141 53.7295 29.5433 53.7295H26.0452V57.0519Z" fill="white"/>
<defs>
<linearGradient id="paint0_linear_708_4533" x1="70.1357" y1="26.4209" x2="22.9325" y2="61.1921" gradientUnits="userSpaceOnUse">
<stop offset="0.274038" stop-color="#28E1E4"/>
<stop offset="0.615385" stop-color="#3AA7FC"/>
<stop offset="0.793269" stop-color="#407BE9"/>
<stop offset="1" stop-color="#3714A2"/>
</linearGradient>
</defs>
</svg>
