<svg width="56" height="70" viewBox="0 0 56 70" fill="none" xmlns="http://www.w3.org/2000/svg">
<path d="M33.4546 0.5H5.22727C2.34033 0.5 0 2.84033 0 5.72728V64.2727C0 67.1597 2.34034 69.5 5.22728 69.5H50.1818C53.0688 69.5 55.4091 67.1597 55.4091 64.2728V21.9318L33.4546 0.5Z" fill="url(#paint0_linear_684_14197)"/>
<path d="M55.4105 21.9318L33.4559 0.5V16.7045C33.4559 19.5915 35.7962 21.9318 38.6832 21.9318H55.4105Z" fill="#FE9B57"/>
<path d="M14.7769 58.5908V48.9015H19.1385C20.1728 48.9015 20.9876 49.1845 21.5828 49.7505C22.178 50.3066 22.4756 51.0628 22.4756 52.0191C22.4756 52.9753 22.178 53.7364 21.5828 54.3024C20.9876 54.8585 20.1728 55.1366 19.1385 55.1366H15.8746V58.5908H14.7769ZM15.8746 54.1121H19.0653C19.8264 54.1121 20.4021 53.9267 20.7924 53.5559C21.1827 53.1851 21.3779 52.6728 21.3779 52.0191C21.3779 51.3751 21.1827 50.8677 20.7924 50.4969C20.4021 50.1261 19.8264 49.9407 19.0653 49.9407H15.8746V54.1121ZM23.9675 58.5908V48.9015H28.051C28.6267 48.9015 29.178 49.0138 29.7049 49.2382C30.2416 49.4528 30.7197 49.77 31.1393 50.1895C31.5589 50.6091 31.8906 51.1165 32.1346 51.7117C32.3785 52.3069 32.5005 52.9851 32.5005 53.7462C32.5005 54.5073 32.3785 55.1854 32.1346 55.7806C31.8906 56.3759 31.5589 56.8832 31.1393 57.3028C30.7197 57.7224 30.2416 58.0444 29.7049 58.2688C29.178 58.4835 28.6267 58.5908 28.051 58.5908H23.9675ZM25.0652 57.5516H28.0071C28.6999 57.5516 29.3 57.376 29.8074 57.0247C30.3148 56.6735 30.7051 56.21 30.9783 55.6343C31.2613 55.0586 31.4027 54.4292 31.4027 53.7462C31.4027 53.0534 31.2613 52.4192 30.9783 51.8435C30.7051 51.2678 30.3148 50.8092 29.8074 50.4676C29.3 50.1164 28.6999 49.9407 28.0071 49.9407H25.0652V57.5516ZM34.2587 58.5908V48.9015H41.2548V49.9554H35.3564V53.3217H40.6108V54.3902H35.3564V58.5908H34.2587Z" fill="white"/>
<defs>
<linearGradient id="paint0_linear_684_14197" x1="27.7046" y1="0.5" x2="27.7046" y2="69.5" gradientUnits="userSpaceOnUse">
<stop stop-color="#FF650B"/>
<stop offset="1" stop-color="#EF4400"/>
</linearGradient>
</defs>
</svg>
