<svg width="57" height="69" viewBox="0 0 57 69" fill="none" xmlns="http://www.w3.org/2000/svg">
<path d="M34.434 0H6.20676C3.31982 0 0.979492 2.34033 0.979492 5.22727V63.7727C0.979492 66.6597 3.31982 69 6.20677 69H51.1613C54.0483 69 56.3886 66.6597 56.3886 63.7727V21.4318L34.434 0Z" fill="url(#paint0_linear_708_4518)"/>
<path d="M56.3889 21.4318L34.4343 0V16.2045C34.4343 19.0915 36.7747 21.4318 39.6616 21.4318H56.3889Z" fill="#86DEA7"/>
<path d="M14.5273 58.0911L18.3913 53.0855L14.7908 48.4019H16.1812L19.05 52.2073L21.9333 48.4019H23.3238L19.7232 53.0855L23.5872 58.0911H22.1968L19.05 53.9344L15.9178 58.0911H14.5273ZM24.733 58.0911V48.4019H25.8307V57.0373H31.1144V58.0911H24.733ZM36.006 58.2082C35.0497 58.2082 34.274 58.0814 33.6788 57.8277C33.0836 57.5642 32.6347 57.2032 32.3322 56.7446C32.0395 56.286 31.8687 55.7688 31.82 55.1931H32.9616C32.9909 55.6615 33.147 56.042 33.43 56.3348C33.7129 56.6177 34.0837 56.8275 34.5423 56.9641C35.0107 57.1007 35.523 57.169 36.0791 57.169C36.8988 57.169 37.5476 57.0275 38.0258 56.7446C38.5039 56.4519 38.743 56.0225 38.743 55.4566C38.743 55.1151 38.621 54.8419 38.377 54.6369C38.1429 54.4223 37.8257 54.2466 37.4257 54.11C37.0354 53.9734 36.606 53.8515 36.1377 53.7441C35.6693 53.627 35.1961 53.5051 34.718 53.3782C34.2496 53.2514 33.8154 53.0904 33.4153 52.8952C33.025 52.7001 32.7079 52.4512 32.464 52.1488C32.2298 51.8365 32.1127 51.4413 32.1127 50.9632C32.1127 50.1729 32.4152 49.5289 33.0201 49.0312C33.6349 48.5336 34.5472 48.2848 35.7571 48.2848C36.6158 48.2848 37.3232 48.4165 37.8794 48.6799C38.4356 48.9336 38.8503 49.2703 39.1235 49.6899C39.4065 50.1094 39.5626 50.5632 39.5919 51.051H38.4649C38.4063 50.5632 38.1624 50.1533 37.733 49.8216C37.3037 49.4801 36.6451 49.3093 35.7571 49.3093C35.2107 49.3093 34.7667 49.363 34.4252 49.4703C34.0837 49.5776 33.8203 49.7191 33.6349 49.8948C33.4592 50.0606 33.3373 50.2363 33.269 50.4217C33.2104 50.6071 33.1811 50.7827 33.1811 50.9486C33.1811 51.2706 33.2982 51.534 33.5324 51.7389C33.7763 51.9341 34.0935 52.1 34.4838 52.2366C34.8838 52.3634 35.3229 52.4805 35.801 52.5879C36.2792 52.6952 36.7524 52.8172 37.2208 52.9538C37.6989 53.0806 38.1331 53.2465 38.5234 53.4514C38.9235 53.6465 39.2406 53.9002 39.4748 54.2125C39.7187 54.5247 39.8407 54.9248 39.8407 55.4127C39.8407 56.3104 39.4992 57.0032 38.8161 57.491C38.1331 57.9692 37.1964 58.2082 36.006 58.2082Z" fill="white"/>
<defs>
<linearGradient id="paint0_linear_708_4518" x1="28.684" y1="0" x2="28.684" y2="69" gradientUnits="userSpaceOnUse">
<stop stop-color="#2AC967"/>
<stop offset="1" stop-color="#008D36"/>
</linearGradient>
</defs>
</svg>
