<svg width="54" height="57" viewBox="0 0 54 57" fill="none" xmlns="http://www.w3.org/2000/svg">
<path d="M0 14.7036L12.4682 22.0553V37.7832L0.0544576 30.5559L0 14.7036Z" fill="#292D32"/>
<path d="M12.4682 22.0553L0 14.7035L27.0991 0L39.5673 7.35177L12.4682 22.0553Z" fill="#292D32"/>
<path d="M35.6205 9.49375L39.5674 7.35175L40.7369 8.05711L40.7473 12.8468L35.6205 9.49375Z" fill="#292D32"/>
<path d="M40.7368 8.05713L53.205 15.4089L53.1765 27.6618L40.7628 20.4346L40.7368 8.05713Z" fill="#292D32"/>
<path d="M16.8896 33.3929L29.306 40.6202V56.348L16.9441 49.2452L16.8896 33.3929Z" fill="#292D32"/>
<path d="M29.3059 40.6202L16.8922 33.3929L40.7628 20.4346L53.1765 27.6619L29.3059 40.6202Z" fill="#292D32"/>
</svg>
