<svg width="54" height="57" viewBox="0 0 54 57" fill="none" xmlns="http://www.w3.org/2000/svg">
<path d="M0 14.7036L12.4682 22.0553V37.7832L0.0544576 30.5559L0 14.7036Z" fill="white"/>
<path d="M12.4682 22.0553L0 14.7035L27.0991 0L39.5673 7.35177L12.4682 22.0553Z" fill="white"/>
<path d="M35.6205 9.49378L39.5674 7.35178L40.7369 8.05714L40.7473 12.8468L35.6205 9.49378Z" fill="white"/>
<path d="M40.7368 8.05713L53.205 15.4089L53.1765 27.6618L40.7628 20.4346L40.7368 8.05713Z" fill="white"/>
<path d="M16.8896 33.3929L29.3059 40.6202V56.348L16.944 49.2452L16.8896 33.3929Z" fill="white"/>
<path d="M29.3059 40.6202L16.8922 33.3929L40.7628 20.4345L53.1765 27.6618L29.3059 40.6202Z" fill="white"/>
</svg>
