<svg xmlns="http://www.w3.org/2000/svg" width="550" height="770" viewBox="0 0 800 1120"><rect x="40" y="40" width="720" height="1040" stroke="black" stroke-width="2" fill="white"/><rect x="40" y="40" width="30" height="30" stroke="black" stroke-width="1" fill="black"/><rect x="40" y="1050" width="30" height="30" stroke="black" stroke-width="1" fill="black"/><rect x="730" y="1050" width="30" height="30" stroke="black" stroke-width="1" fill="black"/><rect x="730" y="40" width="30" height="30" stroke="black" stroke-width="1" fill="black"/><text x="595" y="91" font-size="10" font-family="Times New Roman" text-anchor="middle">7. Số báo danh</text><rect x="531" y="96" width="128" height="25" stroke="black" stroke-width="1" fill="none"/><line x1="547" y1="96" x2="547" y2="121" stroke="black" stroke-width="1"/><line x1="563" y1="96" x2="563" y2="121" stroke="black" stroke-width="1"/><line x1="579" y1="96" x2="579" y2="121" stroke="black" stroke-width="1"/><line x1="595" y1="96" x2="595" y2="121" stroke="black" stroke-width="1"/><line x1="611" y1="96" x2="611" y2="121" stroke="black" stroke-width="1"/><line x1="627" y1="96" x2="627" y2="121" stroke="black" stroke-width="1"/><line x1="643" y1="96" x2="643" y2="121" stroke="black" stroke-width="1"/><rect x="515" y="130" width="16" height="16" stroke="black" stroke-width="1" fill="black"/><text x="523" y="157" font-size="10" font-family="Times New Roman" text-anchor="middle">0</text><circle cx="539" cy="154" r="6" stroke="black" stroke-width="1" fill="white" opacity="0.5"/><circle cx="555" cy="154" r="6" stroke="black" stroke-width="1" fill="white" opacity="0.5"/><circle cx="571" cy="154" r="6" stroke="black" stroke-width="1" fill="white" opacity="0.5"/><circle cx="587" cy="154" r="6" stroke="black" stroke-width="1" fill="white" opacity="0.5"/><circle cx="603" cy="154" r="6" stroke="black" stroke-width="1" fill="white" opacity="0.5"/><circle cx="619" cy="154" r="6" stroke="black" stroke-width="1" fill="white" opacity="0.5"/><circle cx="635" cy="154" r="6" stroke="black" stroke-width="1" fill="white" opacity="0.5"/><circle cx="651" cy="154" r="6" stroke="black" stroke-width="1" fill="white" opacity="0.5"/><text x="523" y="173" font-size="10" font-family="Times New Roman" text-anchor="middle">1</text><circle cx="539" cy="170" r="6" stroke="black" stroke-width="1" fill="white" opacity="0.5"/><circle cx="555" cy="170" r="6" stroke="black" stroke-width="1" fill="white" opacity="0.5"/><circle cx="571" cy="170" r="6" stroke="black" stroke-width="1" fill="white" opacity="0.5"/><circle cx="587" cy="170" r="6" stroke="black" stroke-width="1" fill="white" opacity="0.5"/><circle cx="603" cy="170" r="6" stroke="black" stroke-width="1" fill="white" opacity="0.5"/><circle cx="619" cy="170" r="6" stroke="black" stroke-width="1" fill="white" opacity="0.5"/><circle cx="635" cy="170" r="6" stroke="black" stroke-width="1" fill="white" opacity="0.5"/><circle cx="651" cy="170" r="6" stroke="black" stroke-width="1" fill="white" opacity="0.5"/><text x="523" y="189" font-size="10" font-family="Times New Roman" text-anchor="middle">2</text><circle cx="539" cy="186" r="6" stroke="black" stroke-width="1" fill="white" opacity="0.5"/><circle cx="555" cy="186" r="6" stroke="black" stroke-width="1" fill="white" opacity="0.5"/><circle cx="571" cy="186" r="6" stroke="black" stroke-width="1" fill="white" opacity="0.5"/><circle cx="587" cy="186" r="6" stroke="black" stroke-width="1" fill="white" opacity="0.5"/><circle cx="603" cy="186" r="6" stroke="black" stroke-width="1" fill="white" opacity="0.5"/><circle cx="619" cy="186" r="6" stroke="black" stroke-width="1" fill="white" opacity="0.5"/><circle cx="635" cy="186" r="6" stroke="black" stroke-width="1" fill="white" opacity="0.5"/><circle cx="651" cy="186" r="6" stroke="black" stroke-width="1" fill="white" opacity="0.5"/><text x="523" y="205" font-size="10" font-family="Times New Roman" text-anchor="middle">3</text><circle cx="539" cy="202" r="6" stroke="black" stroke-width="1" fill="white" opacity="0.5"/><circle cx="555" cy="202" r="6" stroke="black" stroke-width="1" fill="white" opacity="0.5"/><circle cx="571" cy="202" r="6" stroke="black" stroke-width="1" fill="white" opacity="0.5"/><circle cx="587" cy="202" r="6" stroke="black" stroke-width="1" fill="white" opacity="0.5"/><circle cx="603" cy="202" r="6" stroke="black" stroke-width="1" fill="white" opacity="0.5"/><circle cx="619" cy="202" r="6" stroke="black" stroke-width="1" fill="white" opacity="0.5"/><circle cx="635" cy="202" r="6" stroke="black" stroke-width="1" fill="white" opacity="0.5"/><circle cx="651" cy="202" r="6" stroke="black" stroke-width="1" fill="white" opacity="0.5"/><text x="523" y="221" font-size="10" font-family="Times New Roman" text-anchor="middle">4</text><circle cx="539" cy="218" r="6" stroke="black" stroke-width="1" fill="white" opacity="0.5"/><circle cx="555" cy="218" r="6" stroke="black" stroke-width="1" fill="white" opacity="0.5"/><circle cx="571" cy="218" r="6" stroke="black" stroke-width="1" fill="white" opacity="0.5"/><circle cx="587" cy="218" r="6" stroke="black" stroke-width="1" fill="white" opacity="0.5"/><circle cx="603" cy="218" r="6" stroke="black" stroke-width="1" fill="white" opacity="0.5"/><circle cx="619" cy="218" r="6" stroke="black" stroke-width="1" fill="white" opacity="0.5"/><circle cx="635" cy="218" r="6" stroke="black" stroke-width="1" fill="white" opacity="0.5"/><circle cx="651" cy="218" r="6" stroke="black" stroke-width="1" fill="white" opacity="0.5"/><text x="523" y="237" font-size="10" font-family="Times New Roman" text-anchor="middle">5</text><circle cx="539" cy="234" r="6" stroke="black" stroke-width="1" fill="white" opacity="0.5"/><circle cx="555" cy="234" r="6" stroke="black" stroke-width="1" fill="white" opacity="0.5"/><circle cx="571" cy="234" r="6" stroke="black" stroke-width="1" fill="white" opacity="0.5"/><circle cx="587" cy="234" r="6" stroke="black" stroke-width="1" fill="white" opacity="0.5"/><circle cx="603" cy="234" r="6" stroke="black" stroke-width="1" fill="white" opacity="0.5"/><circle cx="619" cy="234" r="6" stroke="black" stroke-width="1" fill="white" opacity="0.5"/><circle cx="635" cy="234" r="6" stroke="black" stroke-width="1" fill="white" opacity="0.5"/><circle cx="651" cy="234" r="6" stroke="black" stroke-width="1" fill="white" opacity="0.5"/><text x="523" y="253" font-size="10" font-family="Times New Roman" text-anchor="middle">6</text><circle cx="539" cy="250" r="6" stroke="black" stroke-width="1" fill="white" opacity="0.5"/><circle cx="555" cy="250" r="6" stroke="black" stroke-width="1" fill="white" opacity="0.5"/><circle cx="571" cy="250" r="6" stroke="black" stroke-width="1" fill="white" opacity="0.5"/><circle cx="587" cy="250" r="6" stroke="black" stroke-width="1" fill="white" opacity="0.5"/><circle cx="603" cy="250" r="6" stroke="black" stroke-width="1" fill="white" opacity="0.5"/><circle cx="619" cy="250" r="6" stroke="black" stroke-width="1" fill="white" opacity="0.5"/><circle cx="635" cy="250" r="6" stroke="black" stroke-width="1" fill="white" opacity="0.5"/><circle cx="651" cy="250" r="6" stroke="black" stroke-width="1" fill="white" opacity="0.5"/><text x="523" y="269" font-size="10" font-family="Times New Roman" text-anchor="middle">7</text><circle cx="539" cy="266" r="6" stroke="black" stroke-width="1" fill="white" opacity="0.5"/><circle cx="555" cy="266" r="6" stroke="black" stroke-width="1" fill="white" opacity="0.5"/><circle cx="571" cy="266" r="6" stroke="black" stroke-width="1" fill="white" opacity="0.5"/><circle cx="587" cy="266" r="6" stroke="black" stroke-width="1" fill="white" opacity="0.5"/><circle cx="603" cy="266" r="6" stroke="black" stroke-width="1" fill="white" opacity="0.5"/><circle cx="619" cy="266" r="6" stroke="black" stroke-width="1" fill="white" opacity="0.5"/><circle cx="635" cy="266" r="6" stroke="black" stroke-width="1" fill="white" opacity="0.5"/><circle cx="651" cy="266" r="6" stroke="black" stroke-width="1" fill="white" opacity="0.5"/><text x="523" y="285" font-size="10" font-family="Times New Roman" text-anchor="middle">8</text><circle cx="539" cy="282" r="6" stroke="black" stroke-width="1" fill="white" opacity="0.5"/><circle cx="555" cy="282" r="6" stroke="black" stroke-width="1" fill="white" opacity="0.5"/><circle cx="571" cy="282" r="6" stroke="black" stroke-width="1" fill="white" opacity="0.5"/><circle cx="587" cy="282" r="6" stroke="black" stroke-width="1" fill="white" opacity="0.5"/><circle cx="603" cy="282" r="6" stroke="black" stroke-width="1" fill="white" opacity="0.5"/><circle cx="619" cy="282" r="6" stroke="black" stroke-width="1" fill="white" opacity="0.5"/><circle cx="635" cy="282" r="6" stroke="black" stroke-width="1" fill="white" opacity="0.5"/><circle cx="651" cy="282" r="6" stroke="black" stroke-width="1" fill="white" opacity="0.5"/><text x="523" y="301" font-size="10" font-family="Times New Roman" text-anchor="middle">9</text><circle cx="539" cy="298" r="6" stroke="black" stroke-width="1" fill="white" opacity="0.5"/><circle cx="555" cy="298" r="6" stroke="black" stroke-width="1" fill="white" opacity="0.5"/><circle cx="571" cy="298" r="6" stroke="black" stroke-width="1" fill="white" opacity="0.5"/><circle cx="587" cy="298" r="6" stroke="black" stroke-width="1" fill="white" opacity="0.5"/><circle cx="603" cy="298" r="6" stroke="black" stroke-width="1" fill="white" opacity="0.5"/><circle cx="619" cy="298" r="6" stroke="black" stroke-width="1" fill="white" opacity="0.5"/><circle cx="635" cy="298" r="6" stroke="black" stroke-width="1" fill="white" opacity="0.5"/><circle cx="651" cy="298" r="6" stroke="black" stroke-width="1" fill="white" opacity="0.5"/><rect x="515" y="306" width="16" height="16" stroke="black" stroke-width="1" fill="black"/><text x="713" y="91" font-size="10" font-family="Times New Roman" text-anchor="middle">8. Mã đề</text><rect x="681" y="96" width="64" height="25" stroke="black" stroke-width="1" fill="none"/><line x1="697" y1="96" x2="697" y2="121" stroke="black" stroke-width="1"/><line x1="713" y1="96" x2="713" y2="121" stroke="black" stroke-width="1"/><line x1="729" y1="96" x2="729" y2="121" stroke="black" stroke-width="1"/><rect x="665" y="130" width="16" height="16" stroke="black" stroke-width="1" fill="black"/><text x="673" y="157" font-size="10" font-family="Times New Roman" text-anchor="middle">0</text><circle cx="689" cy="154" r="6" stroke="black" stroke-width="1" fill="white" opacity="0.5"/><circle cx="705" cy="154" r="6" stroke="black" stroke-width="1" fill="white" opacity="0.5"/><circle cx="721" cy="154" r="6" stroke="black" stroke-width="1" fill="white" opacity="0.5"/><circle cx="737" cy="154" r="6" stroke="black" stroke-width="1" fill="white" opacity="0.5"/><text x="673" y="173" font-size="10" font-family="Times New Roman" text-anchor="middle">1</text><circle cx="689" cy="170" r="6" stroke="black" stroke-width="1" fill="white" opacity="0.5"/><circle cx="705" cy="170" r="6" stroke="black" stroke-width="1" fill="white" opacity="0.5"/><circle cx="721" cy="170" r="6" stroke="black" stroke-width="1" fill="white" opacity="0.5"/><circle cx="737" cy="170" r="6" stroke="black" stroke-width="1" fill="white" opacity="0.5"/><text x="673" y="189" font-size="10" font-family="Times New Roman" text-anchor="middle">2</text><circle cx="689" cy="186" r="6" stroke="black" stroke-width="1" fill="white" opacity="0.5"/><circle cx="705" cy="186" r="6" stroke="black" stroke-width="1" fill="white" opacity="0.5"/><circle cx="721" cy="186" r="6" stroke="black" stroke-width="1" fill="white" opacity="0.5"/><circle cx="737" cy="186" r="6" stroke="black" stroke-width="1" fill="white" opacity="0.5"/><text x="673" y="205" font-size="10" font-family="Times New Roman" text-anchor="middle">3</text><circle cx="689" cy="202" r="6" stroke="black" stroke-width="1" fill="white" opacity="0.5"/><circle cx="705" cy="202" r="6" stroke="black" stroke-width="1" fill="white" opacity="0.5"/><circle cx="721" cy="202" r="6" stroke="black" stroke-width="1" fill="white" opacity="0.5"/><circle cx="737" cy="202" r="6" stroke="black" stroke-width="1" fill="white" opacity="0.5"/><text x="673" y="221" font-size="10" font-family="Times New Roman" text-anchor="middle">4</text><circle cx="689" cy="218" r="6" stroke="black" stroke-width="1" fill="white" opacity="0.5"/><circle cx="705" cy="218" r="6" stroke="black" stroke-width="1" fill="white" opacity="0.5"/><circle cx="721" cy="218" r="6" stroke="black" stroke-width="1" fill="white" opacity="0.5"/><circle cx="737" cy="218" r="6" stroke="black" stroke-width="1" fill="white" opacity="0.5"/><text x="673" y="237" font-size="10" font-family="Times New Roman" text-anchor="middle">5</text><circle cx="689" cy="234" r="6" stroke="black" stroke-width="1" fill="white" opacity="0.5"/><circle cx="705" cy="234" r="6" stroke="black" stroke-width="1" fill="white" opacity="0.5"/><circle cx="721" cy="234" r="6" stroke="black" stroke-width="1" fill="white" opacity="0.5"/><circle cx="737" cy="234" r="6" stroke="black" stroke-width="1" fill="white" opacity="0.5"/><text x="673" y="253" font-size="10" font-family="Times New Roman" text-anchor="middle">6</text><circle cx="689" cy="250" r="6" stroke="black" stroke-width="1" fill="white" opacity="0.5"/><circle cx="705" cy="250" r="6" stroke="black" stroke-width="1" fill="white" opacity="0.5"/><circle cx="721" cy="250" r="6" stroke="black" stroke-width="1" fill="white" opacity="0.5"/><circle cx="737" cy="250" r="6" stroke="black" stroke-width="1" fill="white" opacity="0.5"/><text x="673" y="269" font-size="10" font-family="Times New Roman" text-anchor="middle">7</text><circle cx="689" cy="266" r="6" stroke="black" stroke-width="1" fill="white" opacity="0.5"/><circle cx="705" cy="266" r="6" stroke="black" stroke-width="1" fill="white" opacity="0.5"/><circle cx="721" cy="266" r="6" stroke="black" stroke-width="1" fill="white" opacity="0.5"/><circle cx="737" cy="266" r="6" stroke="black" stroke-width="1" fill="white" opacity="0.5"/><text x="673" y="285" font-size="10" font-family="Times New Roman" text-anchor="middle">8</text><circle cx="689" cy="282" r="6" stroke="black" stroke-width="1" fill="white" opacity="0.5"/><circle cx="705" cy="282" r="6" stroke="black" stroke-width="1" fill="white" opacity="0.5"/><circle cx="721" cy="282" r="6" stroke="black" stroke-width="1" fill="white" opacity="0.5"/><circle cx="737" cy="282" r="6" stroke="black" stroke-width="1" fill="white" opacity="0.5"/><text x="673" y="301" font-size="10" font-family="Times New Roman" text-anchor="middle">9</text><circle cx="689" cy="298" r="6" stroke="black" stroke-width="1" fill="white" opacity="0.5"/><circle cx="705" cy="298" r="6" stroke="black" stroke-width="1" fill="white" opacity="0.5"/><circle cx="721" cy="298" r="6" stroke="black" stroke-width="1" fill="white" opacity="0.5"/><circle cx="737" cy="298" r="6" stroke="black" stroke-width="1" fill="white" opacity="0.5"/><rect x="665" y="306" width="16" height="16" stroke="black" stroke-width="1" fill="black"/><rect x="60" y="370" width="16" height="16" stroke="black" stroke-width="1" fill="black"/><rect x="60" y="546" width="16" height="16" stroke="black" stroke-width="1" fill="black"/><circle cx="84" cy="378" r="6" stroke="black" stroke-width="1" fill="white" opacity="0.5"/><text x="84" y="381" font-size="9" font-family="Times New Roman" text-anchor="middle">A</text><circle cx="100" cy="378" r="6" stroke="black" stroke-width="1" fill="white" opacity="0.5"/><text x="100" y="381" font-size="9" font-family="Times New Roman" text-anchor="middle">B</text><circle cx="116" cy="378" r="6" stroke="black" stroke-width="1" fill="white" opacity="0.5"/><text x="116" y="381" font-size="9" font-family="Times New Roman" text-anchor="middle">C</text><circle cx="132" cy="378" r="6" stroke="black" stroke-width="1" fill="white" opacity="0.5"/><text x="132" y="381" font-size="9" font-family="Times New Roman" text-anchor="middle">D</text><text x="68" y="397" font-size="10" font-family="Times New Roman" text-anchor="middle">1</text><circle cx="84" cy="394" r="6" stroke="black" stroke-width="1" fill="white" opacity="0.5"/><circle cx="100" cy="394" r="6" stroke="black" stroke-width="1" fill="white" opacity="0.5"/><circle cx="116" cy="394" r="6" stroke="black" stroke-width="1" fill="white" opacity="0.5"/><circle cx="132" cy="394" r="6" stroke="black" stroke-width="1" fill="white" opacity="0.5"/><text x="68" y="413" font-size="10" font-family="Times New Roman" text-anchor="middle">2</text><circle cx="84" cy="410" r="6" stroke="black" stroke-width="1" fill="white" opacity="0.5"/><circle cx="100" cy="410" r="6" stroke="black" stroke-width="1" fill="white" opacity="0.5"/><circle cx="116" cy="410" r="6" stroke="black" stroke-width="1" fill="white" opacity="0.5"/><circle cx="132" cy="410" r="6" stroke="black" stroke-width="1" fill="white" opacity="0.5"/><text x="68" y="429" font-size="10" font-family="Times New Roman" text-anchor="middle">3</text><circle cx="84" cy="426" r="6" stroke="black" stroke-width="1" fill="white" opacity="0.5"/><circle cx="100" cy="426" r="6" stroke="black" stroke-width="1" fill="white" opacity="0.5"/><circle cx="116" cy="426" r="6" stroke="black" stroke-width="1" fill="white" opacity="0.5"/><circle cx="132" cy="426" r="6" stroke="black" stroke-width="1" fill="white" opacity="0.5"/><text x="68" y="445" font-size="10" font-family="Times New Roman" text-anchor="middle">4</text><circle cx="84" cy="442" r="6" stroke="black" stroke-width="1" fill="white" opacity="0.5"/><circle cx="100" cy="442" r="6" stroke="black" stroke-width="1" fill="white" opacity="0.5"/><circle cx="116" cy="442" r="6" stroke="black" stroke-width="1" fill="white" opacity="0.5"/><circle cx="132" cy="442" r="6" stroke="black" stroke-width="1" fill="white" opacity="0.5"/><text x="68" y="461" font-size="10" font-family="Times New Roman" text-anchor="middle">5</text><circle cx="84" cy="458" r="6" stroke="black" stroke-width="1" fill="white" opacity="0.5"/><circle cx="100" cy="458" r="6" stroke="black" stroke-width="1" fill="white" opacity="0.5"/><circle cx="116" cy="458" r="6" stroke="black" stroke-width="1" fill="white" opacity="0.5"/><circle cx="132" cy="458" r="6" stroke="black" stroke-width="1" fill="white" opacity="0.5"/><text x="68" y="477" font-size="10" font-family="Times New Roman" text-anchor="middle">6</text><circle cx="84" cy="474" r="6" stroke="black" stroke-width="1" fill="white" opacity="0.5"/><circle cx="100" cy="474" r="6" stroke="black" stroke-width="1" fill="white" opacity="0.5"/><circle cx="116" cy="474" r="6" stroke="black" stroke-width="1" fill="white" opacity="0.5"/><circle cx="132" cy="474" r="6" stroke="black" stroke-width="1" fill="white" opacity="0.5"/><text x="68" y="493" font-size="10" font-family="Times New Roman" text-anchor="middle">7</text><circle cx="84" cy="490" r="6" stroke="black" stroke-width="1" fill="white" opacity="0.5"/><circle cx="100" cy="490" r="6" stroke="black" stroke-width="1" fill="white" opacity="0.5"/><circle cx="116" cy="490" r="6" stroke="black" stroke-width="1" fill="white" opacity="0.5"/><circle cx="132" cy="490" r="6" stroke="black" stroke-width="1" fill="white" opacity="0.5"/><text x="68" y="509" font-size="10" font-family="Times New Roman" text-anchor="middle">8</text><circle cx="84" cy="506" r="6" stroke="black" stroke-width="1" fill="white" opacity="0.5"/><circle cx="100" cy="506" r="6" stroke="black" stroke-width="1" fill="white" opacity="0.5"/><circle cx="116" cy="506" r="6" stroke="black" stroke-width="1" fill="white" opacity="0.5"/><circle cx="132" cy="506" r="6" stroke="black" stroke-width="1" fill="white" opacity="0.5"/><rect x="240" y="370" width="16" height="16" stroke="black" stroke-width="1" fill="black"/><rect x="240" y="546" width="16" height="16" stroke="black" stroke-width="1" fill="black"/><rect x="420" y="370" width="16" height="16" stroke="black" stroke-width="1" fill="black"/><rect x="420" y="546" width="16" height="16" stroke="black" stroke-width="1" fill="black"/><rect x="600" y="370" width="16" height="16" stroke="black" stroke-width="1" fill="black"/><rect x="600" y="546" width="16" height="16" stroke="black" stroke-width="1" fill="black"/><rect x="60" y="617" width="16" height="16" stroke="black" stroke-width="1" fill="black"/><rect x="60" y="697" width="16" height="16" stroke="black" stroke-width="1" fill="black"/><rect x="150" y="617" width="16" height="16" stroke="black" stroke-width="1" fill="black"/><rect x="150" y="697" width="16" height="16" stroke="black" stroke-width="1" fill="black"/><rect x="240" y="617" width="16" height="16" stroke="black" stroke-width="1" fill="black"/><rect x="240" y="697" width="16" height="16" stroke="black" stroke-width="1" fill="black"/><rect x="330" y="617" width="16" height="16" stroke="black" stroke-width="1" fill="black"/><rect x="330" y="697" width="16" height="16" stroke="black" stroke-width="1" fill="black"/><rect x="420" y="617" width="16" height="16" stroke="black" stroke-width="1" fill="black"/><rect x="420" y="697" width="16" height="16" stroke="black" stroke-width="1" fill="black"/><rect x="510" y="617" width="16" height="16" stroke="black" stroke-width="1" fill="black"/><rect x="510" y="697" width="16" height="16" stroke="black" stroke-width="1" fill="black"/><rect x="600" y="617" width="16" height="16" stroke="black" stroke-width="1" fill="black"/><rect x="600" y="697" width="16" height="16" stroke="black" stroke-width="1" fill="black"/><rect x="690" y="617" width="16" height="16" stroke="black" stroke-width="1" fill="black"/><rect x="690" y="697" width="16" height="16" stroke="black" stroke-width="1" fill="black"/><rect x="60" y="799" width="16" height="16" stroke="black" stroke-width="1" fill="black"/><rect x="60" y="1007" width="16" height="16" stroke="black" stroke-width="1" fill="black"/><rect x="180" y="799" width="16" height="16" stroke="black" stroke-width="1" fill="black"/><rect x="180" y="1007" width="16" height="16" stroke="black" stroke-width="1" fill="black"/><rect x="300" y="799" width="16" height="16" stroke="black" stroke-width="1" fill="black"/><rect x="300" y="1007" width="16" height="16" stroke="black" stroke-width="1" fill="black"/><rect x="420" y="799" width="16" height="16" stroke="black" stroke-width="1" fill="black"/><rect x="420" y="1007" width="16" height="16" stroke="black" stroke-width="1" fill="black"/><rect x="540" y="799" width="16" height="16" stroke="black" stroke-width="1" fill="black"/><rect x="540" y="1007" width="16" height="16" stroke="black" stroke-width="1" fill="black"/><rect x="660" y="799" width="16" height="16" stroke="black" stroke-width="1" fill="black"/><rect x="660" y="1007" width="16" height="16" stroke="black" stroke-width="1" fill="black"/><text x="100" y="1058" font-size="12" font-family="Times New Roman" text-anchor="left" font-weight="bold">Type:</text><rect x="150" y="1043" width="160" height="20" stroke="black" stroke-width="1" fill="none"/><circle cx="160" cy="1053" r="7" stroke="black" stroke-width="1" fill="white"/><circle cx="180" cy="1053" r="7" stroke="black" stroke-width="1" fill="black"/><circle cx="200" cy="1053" r="7" stroke="black" stroke-width="1" fill="white"/><circle cx="220" cy="1053" r="7" stroke="black" stroke-width="1" fill="black"/><circle cx="240" cy="1053" r="7" stroke="black" stroke-width="1" fill="white"/><circle cx="260" cy="1053" r="7" stroke="black" stroke-width="1" fill="black"/><circle cx="280" cy="1053" r="7" stroke="black" stroke-width="1" fill="white"/><circle cx="300" cy="1053" r="7" stroke="black" stroke-width="1" fill="black"/><text x="400" y="1065" font-size="16" font-family="Times New Roman" text-anchor="middle">v31.0</text><text x="400" y="70" font-size="16" font-family="Times New Roman" text-anchor="middle" font-weight="bold">PHIẾU TRẢ LỜI TRẮC NGHIỆM</text><text x="400" y="90" font-size="12" font-family="Times New Roman" text-anchor="middle">Kỳ thi: ...................................</text><text x="50" y="110" font-size="12" font-family="Times New Roman" text-anchor="left">Bài thi: .....................................................................................</text><text x="360" y="110" font-size="12" font-family="Times New Roman" text-anchor="left">Ngày thi: ......../......../20.......</text><text x="125" y="146" font-size="10" font-family="Times New Roman" text-anchor="middle">Họ tên, chữ ký</text><text x="125" y="162" font-size="10" font-family="Times New Roman" text-anchor="middle">của cán bộ coi thi 1</text><text x="125" y="236" font-size="10" font-family="Times New Roman" text-anchor="middle">Họ tên, chữ ký</text><text x="125" y="252" font-size="10" font-family="Times New Roman" text-anchor="middle">của cán bộ coi thi 2</text><rect x="50" y="130" width="150" height="180" stroke="black" stroke-width="1" fill="none"/><line x1="50" y1="220" x2="200" y2="220" stroke="black" stroke-width="1"/><text x="210" y="150" font-size="10" font-family="Times New Roman" text-anchor="left">1. Hội đồng thi: .......................................................................................</text><text x="210" y="180" font-size="10" font-family="Times New Roman" text-anchor="left">2. Điểm thi: .............................................................................................</text><text x="210" y="210" font-size="10" font-family="Times New Roman" text-anchor="left">3. Phòng thi số: ......................................................................................</text><text x="210" y="240" font-size="10" font-family="Times New Roman" text-anchor="left">4. Họ và tên thí sinh: ..............................................................................</text><text x="210" y="270" font-size="10" font-family="Times New Roman" text-anchor="left">5. Ngày sinh: ........../............/..................(Nam/Nữ)................................</text><text x="210" y="300" font-size="10" font-family="Times New Roman" text-anchor="left">6. Chữ ký của thí sinh: ...........................................................................</text><rect x="205" y="130" width="300" height="180" stroke="black" stroke-width="1" fill="none"/><text x="60" y="355" font-size="12" font-family="Times New Roman" text-anchor="left" font-weight="bold">PHẦN I</text><text x="60" y="587" font-size="12" font-family="Times New Roman" text-anchor="left" font-weight="bold">PHẦN II</text><text x="60" y="769" font-size="12" font-family="Times New Roman" text-anchor="left" font-weight="bold">PHẦN III</text></svg>